PathFileType	3	(X/Y/Z)	RCH0000002 BBF 06.c3d
DataRate	CameraRate	NumFrames	NumMarkers	Units	OrigDataRate	OrigDataStartFrame	OrigNumFrames
100.0	100.0	13	23	mm	100.0	275	380
Frame#	Time	LASI			RASI			LPAT			LKNE			LANK			LMED			LTOE			RPAT			RKNE			RANK			RTOE			RMED			RHEE			RPSI			T2			T10			LPSI			LHEE			MAN			RTHI			LTHI			RTIB			LTIB			
		X1	Y1	Z1	X2	Y2	Z2	X3	Y3	Z3	X4	Y4	Z4	X5	Y5	Z5	X6	Y6	Z6	X7	Y7	Z7	X8	Y8	Z8	X9	Y9	Z9	X10	Y10	Z10	X11	Y11	Z11	X12	Y12	Z12	X13	Y13	Z13	X14	Y14	Z14	X15	Y15	Z15	X16	Y16	Z16	X17	Y17	Z17	X18	Y18	Z18	X19	Y19	Z19	X20	Y20	Z20	X21	Y21	Z21	X22	Y22	Z22	X23	Y23	Z23	

275	2.740	-1386.22337	86.81580	624.95853	-1398.88663	-88.96152	639.52162	-1318.36478	28.64770	383.04334	-1345.48167	90.44550	334.26308	-1395.32205	105.18874	65.05386	-1394.29321	34.24522	78.81638	-1345.65166	70.24805	64.76552	-1457.72978	-29.93914	340.56671	-1515.39736	-79.60804	325.25736	-1677.51908	-79.65155	99.85254	-1654.47627	-34.52843	68.16373	-1686.34874	-14.58198	123.32140	-1701.33984	-56.87003	155.40168	-1505.00440	-23.84004	687.74595	-1517.29124	62.12724	955.07510	-1493.94347	28.26487	770.38370	-1502.31693	47.74664	679.68658	-1436.07740	64.12072	91.23524	-1382.45381	66.44166	932.25312	-1469.85410	-153.34180	424.49027	-1377.45664	166.01845	451.64349	-1583.74509	-146.62123	227.65605	-1363.39541	159.58891	223.57525	
276	2.750	-1378.35223	88.81762	627.51044	-1387.72754	-87.02804	639.55071	-1316.98183	33.74759	382.41902	-1346.20656	95.02060	334.69304	-1395.15068	108.14715	64.86524	-1394.66609	37.37523	79.39206	-1345.75771	72.73065	64.72629	-1440.48318	-28.86782	340.15794	-1498.12655	-78.52790	324.51089	-1664.35084	-80.71080	103.43613	-1642.96030	-35.84291	70.59587	-1672.75604	-15.48466	126.85998	-1686.29905	-57.67168	159.38404	-1494.45155	-24.71311	689.43093	-1507.75805	59.80191	957.06181	-1483.59046	26.46480	772.61527	-1492.88078	46.88742	682.65390	-1436.15850	67.55863	91.57788	-1373.12959	65.56817	934.99969	-1454.48941	-152.02755	424.69634	-1375.26096	169.63675	453.26894	-1566.98686	-146.43987	228.91420	-1363.80783	163.66990	223.16663	
277	2.760	-1370.54519	90.80495	630.01411	-1376.67271	-85.10438	639.63036	-1315.63657	38.67042	381.82896	-1346.92726	99.43624	335.13128	-1395.02850	110.92141	64.70700	-1395.00314	40.32394	79.97214	-1345.86857	75.09081	64.70681	-1423.27902	-27.78403	339.87779	-1480.89024	-77.45541	323.85985	-1651.12495	-81.78032	107.06946	-1631.21851	-37.21783	73.10740	-1659.08228	-16.38002	130.35882	-1671.29747	-58.42562	163.35399	-1483.99587	-25.53419	691.11256	-1498.28233	57.49467	959.04429	-1473.33663	24.73152	774.82656	-1483.52436	46.07580	685.57609	-1436.24944	70.77040	91.93649	-1363.86460	64.69619	937.70565	-1439.19862	-150.72635	424.99914	-1373.09042	173.14208	454.85397	-1550.29066	-146.25927	230.29943	-1364.32805	167.57615	222.79004	
278	2.770	-1362.84738	92.76448	632.42402	-1365.79749	-83.19840	639.80221	-1314.34400	43.26490	381.30033	-1347.62346	103.55382	335.58425	-1394.99271	113.35665	64.60707	-1395.26928	42.93862	80.56225	-1345.98457	77.22541	64.72348	-1406.11412	-26.68242	339.85807	-1463.67461	-76.40050	323.40145	-1637.71273	-82.86228	110.77282	-1618.97566	-38.69613	75.75445	-1645.18348	-17.25686	133.76631	-1656.29691	-59.08793	167.27700	-1473.70849	-26.26171	692.78216	-1488.89440	55.22466	961.01580	-1463.25442	23.12353	776.99559	-1474.30555	45.34842	688.40772	-1436.35218	73.56552	92.32855	-1354.69072	63.82671	940.32825	-1424.01416	-149.45299	425.49379	-1370.95409	176.43482	456.36329	-1533.65515	-146.07964	231.91923	-1365.03160	171.15768	222.47414	
279	2.780	-1355.29053	94.68578	634.70341	-1355.15408	-81.31577	640.09660	-1313.10172	47.41985	380.85292	-1348.26692	107.26825	336.05642	-1395.06731	115.33810	64.58775	-1395.43407	45.10655	81.16807	-1346.10279	79.05827	64.78805	-1388.96938	-25.56519	340.20686	-1446.45219	-75.37401	323.21597	-1623.97905	-83.95219	114.54097	-1605.98983	-40.30140	78.56531	-1630.91770	-18.10309	137.02926	-1641.23218	-59.62346	171.10791	-1463.63962	-26.86648	694.42988	-1479.61040	53.00926	962.96911	-1453.39467	21.68598	779.10289	-1465.26565	44.73006	691.11038	-1436.46298	75.80245	92.77071	-1345.62517	62.96082	942.83099	-1408.95032	-148.22211	426.25698	-1368.85058	179.43902	457.77023	-1517.05583	-145.90089	233.85059	-1365.96143	174.30129	222.24048	
280	2.790	-1347.89511	96.56059	636.82498	-1344.77384	-79.46089	640.52950	-1311.88888	51.07041	380.49734	-1348.82136	110.51383	336.54949	-1395.26013	116.80039	64.66394	-1395.47374	46.76379	81.79452	-1346.21674	80.54571	64.90642	-1371.81971	-24.44344	341.00204	-1429.19224	-74.38812	323.36205	-1609.79436	-85.03768	118.33779	-1592.07255	-42.03338	81.53451	-1616.15891	-18.90555	140.09282	-1626.01950	-60.00846	174.78879	-1453.82077	-27.33401	696.04338	-1470.43587	50.86487	964.89514	-1443.78859	20.44829	781.13078	-1456.43181	44.23162	693.65289	-1436.57179	77.40023	93.27741	-1336.67388	62.10034	945.18365	-1394.00985	-147.04846	427.34155	-1366.76895	182.10597	459.05772	-1500.45316	-145.72254	236.13121	-1367.12131	176.93791	222.10221	
281	2.800	-1340.67261	98.38198	638.77034	-1334.67078	-77.63774	641.10198	-1310.66859	54.19712	380.23445	-1349.24442	113.26426	337.06194	-1395.56257	117.72958	64.84249	-1395.37250	47.89643	82.44517	-1346.31676	81.67718	65.07846	-1354.64106	-23.33641	342.29066	-1411.86724	-73.45613	323.87591	-1595.04207	-86.09909	122.09767	-1577.09572	-43.86793	84.62392	-1600.80426	-19.65026	142.90204	-1610.56454	-60.23160	178.25037	-1444.26795	-27.66452	697.60727	-1461.36890	48.80748	966.78224	-1434.45082	19.42390	783.06280	-1447.81983	43.85012	696.01059	-1436.66294	78.34113	93.85954	-1327.83451	61.24802	947.36150	-1379.18838	-145.94671	428.77527	-1364.69103	184.41374	460.21782	-1483.79888	-145.54384	238.75767	-1368.47605	179.04352	222.06432	
282	2.810	-1333.62748	100.14347	640.52886	-1324.84537	-75.85057	641.80120	-1309.39278	56.81992	380.05575	-1349.49095	115.52871	337.58911	-1395.95140	118.15945	65.12241	-1395.12331	48.53639	83.12172	-1346.39097	82.47236	65.29856	-1337.41498	-22.26902	344.09191	-1394.45652	-72.59166	324.77317	-1579.62289	-87.11154	125.73234	-1560.98960	-45.76069	87.76927	-1584.77671	-20.32304	145.40465	-1594.77017	-60.29375	181.41649	-1434.98501	-27.87125	699.10293	-1452.40267	46.85279	968.61605	-1425.38284	18.61170	784.88330	-1439.43666	43.57034	698.16449	-1436.71675	78.66637	94.52336	-1319.09898	60.40752	949.34437	-1364.47718	-144.93081	430.56271	-1362.59453	186.36405	461.25047	-1467.04085	-145.36386	241.68918	-1369.95705	180.63544	222.12472	
283	2.820	-1326.75860	101.83847	642.09624	-1315.28818	-74.10442	642.60264	-1308.00881	58.98905	379.94464	-1349.51727	117.34526	338.12346	-1396.39223	118.16340	65.49577	-1394.72811	48.75300	83.82369	-1346.42672	82.97556	65.55671	-1320.13145	-21.26840	346.40213	-1376.94774	-71.80749	326.05204	-1563.45760	-88.04773	129.14115	-1543.73544	-47.65315	90.88982	-1568.02469	-20.91034	147.55472	-1578.54396	-60.20639	184.21043	-1425.96664	-27.97783	700.50911	-1443.52727	45.01597	970.37990	-1416.57620	17.99812	786.57733	-1431.28237	43.36751	700.10048	-1436.71180	78.46619	95.26961	-1310.45543	59.58320	951.11567	-1349.86479	-144.01293	432.68899	-1360.45589	187.97761	462.16176	-1450.12703	-145.18184	244.85541	-1371.47158	181.76544	222.27576	
284	2.830	-1320.06026	103.45974	643.47326	-1305.98297	-72.40543	643.47295	-1306.46649	60.77443	379.87844	-1349.28563	118.77289	338.65530	-1396.84424	117.84287	65.94913	-1394.19742	48.64180	84.54827	-1346.41206	83.24838	65.83998	-1302.79055	-20.36000	349.20049	-1359.33713	-71.11411	327.69731	-1546.48869	-88.88109	132.22312	-1525.35540	-49.48040	93.89953	-1550.51974	-21.40014	149.31609	-1561.80470	-59.98905	186.56207	-1417.20083	-28.01500	701.80285	-1434.73096	43.31093	972.05562	-1408.01528	17.55975	788.13092	-1423.35152	43.21045	701.80876	-1436.62756	77.86587	96.09321	-1301.88970	58.77957	952.66181	-1335.33817	-143.20233	435.12434	-1358.25251	189.28883	462.96216	-1433.00900	-144.99732	248.16689	-1372.91440	182.51061	222.50578	
285	2.840	-1313.52251	104.99917	644.66458	-1296.90911	-70.76092	644.37315	-1304.72464	62.25501	379.83090	-1348.76818	119.88301	339.17375	-1397.26536	117.31401	66.46538	-1393.54930	48.31188	85.29041	-1346.33735	83.36158	66.13414	-1285.40333	-19.56397	352.45434	-1341.62935	-70.51825	329.68424	-1528.68104	-89.58878	134.88850	-1505.90159	-51.17925	96.71760	-1532.25283	-21.78274	150.66500	-1544.48743	-59.66576	188.41423	-1408.67076	-28.01731	702.96084	-1426.00098	41.74932	973.62464	-1399.67952	17.26599	789.53156	-1415.63382	43.06492	703.28364	-1436.44690	77.00929	96.98356	-1293.38629	58.00079	953.97190	-1320.88402	-142.50421	437.82893	-1355.96418	190.34041	463.66473	-1415.64511	-144.81029	251.52641	-1374.18041	182.96310	222.80056	
286	2.850	-1307.13137	106.44779	645.67797	-1288.04335	-69.17937	645.26185	-1302.75626	63.50921	379.77489	-1347.95004	120.75122	339.66796	-1397.61748	116.69392	67.02573	-1392.80763	47.87329	86.04327	-1346.19644	83.38694	66.42533	-1267.99236	-18.89245	356.12364	-1323.83747	-70.02166	331.98201	-1510.02150	-90.15408	137.06813	-1485.44554	-52.69565	99.27705	-1513.23012	-22.05149	151.59112	-1526.54662	-59.26140	189.72726	-1400.35599	-28.01992	703.96090	-1417.32391	40.33942	975.06921	-1391.54516	17.08161	790.76890	-1408.11443	42.89677	704.52352	-1436.15832	76.04192	97.92550	-1284.92907	57.25005	955.03785	-1306.49058	-141.91891	440.75717	-1353.57361	191.17844	464.28369	-1398.00341	-144.62101	254.83990	-1375.17690	183.21952	223.14459	
287	2.860	-1300.86862	107.79598	646.52363	-1279.36082	-67.67006	646.09822	-1300.55137	64.60735	379.68513	-1346.83109	121.45019	340.12839	-1397.87070	116.08835	67.61169	-1391.99985	47.42588	86.79877	-1345.98747	83.39016	66.70152	-1250.59182	-18.34800	360.16396	-1305.98322	-69.62028	334.55625	-1490.51719	-90.56799	138.71931	-1464.06896	-53.99035	101.53027	-1493.46856	-22.20333	152.09687	-1507.95695	-58.79848	190.48095	-1392.23324	-28.05587	704.78336	-1408.68591	39.08505	976.37353	-1383.58642	16.96914	791.83539	-1400.77393	42.67466	705.53090	-1435.75743	75.09550	98.90098	-1276.50169	56.52888	955.85458	-1292.15015	-141.44165	443.86107	-1351.06641	191.84810	464.83325	-1380.06406	-144.42963	258.02533	-1375.83401	183.37132	223.52237	
